<svg xmlns="http://www.w3.org/2000/svg" viewBox="0 0 900 560" width="900" height="560"><defs><marker id="arrsafe" markerUnits="userSpaceOnUse" markerWidth="16" markerHeight="16" refX="12" refY="8" orient="auto"><path d="M0,1 L16,8 L0,15 z" fill="#1f9d55"/></marker><marker id="arrbold" markerUnits="userSpaceOnUse" markerWidth="16" markerHeight="16" refX="12" refY="8" orient="auto"><path d="M0,1 L16,8 L0,15 z" fill="#f08a00"/></marker><marker id="arrwild" markerUnits="userSpaceOnUse" markerWidth="16" markerHeight="16" refX="12" refY="8" orient="auto"><path d="M0,1 L16,8 L0,15 z" fill="#c2189b"/></marker></defs><rect width="900" height="560" fill="#f3efe4"/><rect x="8" y="8" width="884" height="544" fill="none" stroke="#cfc8b4" stroke-width="2" rx="10"/><rect x="30" y="70" width="840" height="440" rx="12" fill="#cfe4f2" stroke="none" stroke-width="2" opacity="1"/><ellipse cx="120" cy="130" rx="99.0" ry="33.0" fill="#fff" stroke="none" stroke-width="2" opacity="0.9"/><ellipse cx="300" cy="100" rx="72.0" ry="24.0" fill="#fff" stroke="none" stroke-width="2" opacity="0.9"/><ellipse cx="700" cy="110" rx="90.0" ry="30.0" fill="#fff" stroke="none" stroke-width="2" opacity="0.9"/><ellipse cx="820" cy="200" rx="63.0" ry="21.0" fill="#fff" stroke="none" stroke-width="2" opacity="0.9"/><polygon points="60.0,480.0 60.0,400.0 330.0,400.0 330.0,480.0" fill="#86c46f" stroke="#3f7f3a" stroke-width="3" opacity="1"/><polygon points="330.0,440.0 330.0,410.0 470.0,410.0 470.0,440.0" fill="#92602f" stroke="#6d4521" stroke-width="3" opacity="1"/><text x="400" y="430" font-family="Helvetica,Arial,sans-serif" font-size="11" fill="#fff" text-anchor="middle" font-weight="normal">cloud bridge</text><polygon points="470.0,480.0 470.0,380.0 700.0,380.0 700.0,480.0" fill="#a49d8e" stroke="#7f796c" stroke-width="3" opacity="1"/><circle cx="540" cy="340" r="28" fill="#3a3330" stroke="#111" stroke-width="3" opacity="1"/><text x="540" y="345" font-family="Helvetica,Arial,sans-serif" font-size="11" fill="#bfe9f5" text-anchor="middle" font-weight="normal">wind tube</text><path d="M540,340 C560,260 380,260 330,230" fill="none" stroke="#bfe9f5" stroke-width="12" opacity="0.7" stroke-linecap="round" stroke-linejoin="round"/><polygon points="220.0,300.0 220.0,200.0 460.0,200.0 460.0,300.0" fill="#b8b0a0" stroke="#7f796c" stroke-width="3" opacity="1"/><text x="340" y="255" font-family="Helvetica,Arial,sans-serif" font-size="12" fill="#2b2b2b" text-anchor="middle" font-weight="normal">moon terraces</text><polygon points="60.0,230.0 60.0,150.0 220.0,150.0 220.0,230.0" fill="#c9c1b0" stroke="#7f796c" stroke-width="3" opacity="1"/><circle cx="660" cy="180" r="130" fill="#7f796c" stroke="#555" stroke-width="4" opacity="1"/><circle cx="660" cy="180" r="105" fill="#f2c14e" stroke="#a07a1a" stroke-width="4" opacity="1"/><circle cx="660" cy="180" r="60" fill="#f7e08a" stroke="none" stroke-width="2" opacity="1"/><circle cx="660" cy="182" r="9" fill="#111" stroke="none" stroke-width="2" opacity="1"/><line x1="660" y1="182" x2="660" y2="148" stroke="#444" stroke-width="2.5"/><polygon points="660.0,148.0 684.0,155.0 660.0,162.0" fill="#e0262d" stroke="none" stroke-width="2" opacity="1"/><text x="660" y="82" font-family="Helvetica,Arial,sans-serif" font-size="14" fill="#2b2b2b" text-anchor="middle" font-weight="bold">Sunset Bowl</text><polygon points="460.0,220.0 500.0,220.0 560.0,200.0 560.0,170.0 500.0,190.0 460.0,190.0" fill="#f2c14e" stroke="#a07a1a" stroke-width="2" opacity="1"/><text x="650" y="300" font-family="Helvetica,Arial,sans-serif" font-size="11" fill="#555" text-anchor="middle" font-weight="normal" font-style="italic">wide cone; whole archipelago behind</text><circle cx="100" cy="440" r="13" fill="#fff" stroke="#2b2b2b" stroke-width="2" opacity="1"/><text x="100" y="445" font-family="Helvetica,Arial,sans-serif" font-size="15" fill="#2b2b2b" text-anchor="middle" font-weight="bold">T</text><path d="M110,435 L330,430 L470,425 L600,410 L700,330 L500,270 L330,250 L120,190 L330,170 L555,182 L650,182" fill="none" stroke="#1f9d55" stroke-width="5" opacity="0.95" marker-end="url(#arrsafe)" stroke-linecap="round" stroke-linejoin="round"/><text x="400" y="520" font-family="Helvetica,Arial,sans-serif" font-size="14" fill="#1f9d55" text-anchor="middle" font-weight="bold">terraces and switchbacks (5 relaxed strokes)</text><path d="M120,438 L330,425 L480,430 L545,345" fill="none" stroke="#f08a00" stroke-width="5" opacity="0.95" stroke-dasharray="10 7" marker-end="url(#arrbold)" stroke-linecap="round" stroke-linejoin="round"/><path d="M335,232 L400,215 L560,190 L640,184" fill="none" stroke="#f08a00" stroke-width="5" opacity="0.95" stroke-dasharray="10 7" marker-end="url(#arrbold)" stroke-linecap="round" stroke-linejoin="round"/><text x="520" y="150" font-family="Helvetica,Arial,sans-serif" font-size="14" fill="#f08a00" text-anchor="middle" font-weight="bold">wind-tube shortcut to the bowl rim</text><path d="M470,372 L500,300 L600,250 L650,215" fill="none" stroke="#c2189b" stroke-width="5" opacity="0.95" stroke-dasharray="3 7" marker-end="url(#arrwild)" stroke-linecap="round" stroke-linejoin="round"/><text x="760" y="285" font-family="Helvetica,Arial,sans-serif" font-size="14" fill="#c2189b" text-anchor="middle" font-weight="bold">moon jump onto the bowl rim</text><text x="24" y="34" font-family="Helvetica,Arial,sans-serif" font-size="24" font-weight="bold" fill="#2b2b2b">Hole 9 · Summit Sanctuary (par 5 provisional)</text><text x="24" y="56" font-family="Helvetica,Arial,sans-serif" font-size="14" fill="#555">Summit · a mountain-top journey: cloud bridge, wind tube, moon terraces, the Sunset Bowl</text><g font-family="Helvetica,Arial,sans-serif" font-size="13"><line x1="560" y1="538" x2="600" y2="538" stroke="#1f9d55" stroke-width="5"/><text x="606" y="543" fill="#2b2b2b">safe line</text><line x1="672" y1="538" x2="712" y2="538" stroke="#f08a00" stroke-width="5" stroke-dasharray="10 7"/><text x="718" y="543" fill="#2b2b2b">bold line</text><line x1="786" y1="538" x2="826" y2="538" stroke="#c2189b" stroke-width="5" stroke-dasharray="3 7"/><text x="832" y="543" fill="#2b2b2b">wild shot</text></g><text x="24" y="543" font-family="Helvetica,Arial,sans-serif" font-size="11" fill="#888">Schematic concept plan, not to scale. Design illustration only.</text></svg>