<svg xmlns="http://www.w3.org/2000/svg" viewBox="0 0 900 560" width="900" height="560"><defs><marker id="arrsafe" markerUnits="userSpaceOnUse" markerWidth="16" markerHeight="16" refX="12" refY="8" orient="auto"><path d="M0,1 L16,8 L0,15 z" fill="#1f9d55"/></marker><marker id="arrbold" markerUnits="userSpaceOnUse" markerWidth="16" markerHeight="16" refX="12" refY="8" orient="auto"><path d="M0,1 L16,8 L0,15 z" fill="#f08a00"/></marker><marker id="arrwild" markerUnits="userSpaceOnUse" markerWidth="16" markerHeight="16" refX="12" refY="8" orient="auto"><path d="M0,1 L16,8 L0,15 z" fill="#c2189b"/></marker></defs><rect width="900" height="560" fill="#f3efe4"/><rect x="8" y="8" width="884" height="544" fill="none" stroke="#cfc8b4" stroke-width="2" rx="10"/><rect x="30" y="70" width="840" height="440" rx="12" fill="#3a3330" stroke="none" stroke-width="2" opacity="1"/><circle cx="600" cy="300" r="190" fill="#b83a1a" stroke="#ff9a40" stroke-width="4" opacity="1"/><circle cx="600" cy="300" r="150" fill="#a49d8e" stroke="#7f796c" stroke-width="5" opacity="1"/><circle cx="600" cy="300" r="120" fill="#8d8576" stroke="none" stroke-width="2" opacity="1"/><circle cx="600" cy="300" r="60" fill="#a49d8e" stroke="none" stroke-width="2" opacity="1"/><circle cx="600" cy="300" r="8" fill="#111" stroke="none" stroke-width="2" opacity="1"/><line x1="600" y1="300" x2="600" y2="266" stroke="#444" stroke-width="2.5"/><polygon points="600.0,266.0 624.0,273.0 600.0,280.0" fill="#e0262d" stroke="none" stroke-width="2" opacity="1"/><text x="600" y="362" font-family="Helvetica,Arial,sans-serif" font-size="14" fill="#fff" text-anchor="middle" font-weight="bold">Roulette Bowl</text><path d="M475,340 A130,130 0 1 1 680,400" fill="none" stroke="#c2189b" stroke-width="4" opacity="1" stroke-dasharray="3 7" marker-end="url(#arrwild)" stroke-linecap="round" stroke-linejoin="round"/><polygon points="550.8,483.5 518.1,471.4 488.1,453.6 461.9,430.5 440.4,403.1 424.2,372.2 414.0,338.8 410.0,304.1 412.5,269.3 421.3,235.6 436.1,204.0 456.4,175.6 481.5,151.5 510.7,132.3 542.9,118.8 577.0,111.4 611.8,110.4 646.3,115.7 679.2,127.3 709.5,144.7 736.0,167.3 758.0,194.4 774.6,225.1 785.4,258.3 789.9,292.9 788.0,327.7 779.7,361.6 765.4,393.5 745.5,422.1 714.9,396.4 730.6,373.8 741.9,348.7 748.4,321.9 749.9,294.4 746.3,267.1 737.9,240.9 724.7,216.7 707.4,195.3 686.4,177.4 662.5,163.7 636.6,154.5 609.3,150.3 581.8,151.1 554.9,156.9 529.5,167.6 506.5,182.7 486.6,201.8 470.6,224.2 458.9,249.1 452.0,275.8 450.0,303.3 453.2,330.6 461.2,357.0 474.0,381.4 491.0,403.0 511.7,421.2 535.3,435.3 561.2,444.9" fill="#a49d8e" stroke="#7f796c" stroke-width="3" opacity="0.0"/><polygon points="60.0,470.0 60.0,400.0 330.0,400.0 330.0,470.0" fill="#a49d8e" stroke="#7f796c" stroke-width="3" opacity="1"/><polygon points="60.0,400.0 60.0,150.0 200.0,150.0 200.0,400.0" fill="#b8b0a0" stroke="#7f796c" stroke-width="3" opacity="1"/><text x="130" y="280" font-family="Helvetica,Arial,sans-serif" font-size="12" fill="#2b2b2b" text-anchor="middle" font-weight="normal">rim walk (upper)</text><polygon points="200.0,150.0 200.0,100.0 560.0,100.0 560.0,150.0" fill="#b8b0a0" stroke="#7f796c" stroke-width="3" opacity="1"/><polygon points="470.0,100.0 560.0,100.0 560.0,170.0 520.0,190.0 470.0,150.0" fill="#b8b0a0" stroke="#7f796c" stroke-width="3" opacity="1"/><text x="515" y="135" font-family="Helvetica,Arial,sans-serif" font-size="11" fill="#2b2b2b" text-anchor="middle" font-weight="normal">gate</text><rect x="285" y="420" width="150" height="40" rx="6" fill="#3a3330" stroke="#111" stroke-width="3" opacity="1"/><text x="360" y="445" font-family="Helvetica,Arial,sans-serif" font-size="12" fill="#ffd9a0" text-anchor="middle" font-weight="normal">lava tunnel</text><path d="M330,440 L440,440" fill="none" stroke="#ec5a2a" stroke-width="8" opacity="1" stroke-dasharray="6 6" stroke-linecap="round" stroke-linejoin="round"/><rect x="380" y="120" width="12" height="100" rx="4" fill="#3a3330" stroke="#111" stroke-width="2" opacity="1"/><circle cx="386" cy="170" r="6" fill="#ffd9a0" stroke="none" stroke-width="2" opacity="1"/><text x="386" y="238" font-family="Helvetica,Arial,sans-serif" font-size="12" fill="#ffd9a0" text-anchor="middle" font-weight="normal">sweeper</text><circle cx="525" cy="190" r="10" fill="#f2c14e" stroke="#a07a1a" stroke-width="2" opacity="1"/><text x="525" y="215" font-family="Helvetica,Arial,sans-serif" font-size="11" fill="#fff" text-anchor="middle" font-weight="normal">drop</text><circle cx="100" cy="440" r="13" fill="#fff" stroke="#2b2b2b" stroke-width="2" opacity="1"/><text x="100" y="445" font-family="Helvetica,Arial,sans-serif" font-size="15" fill="#2b2b2b" text-anchor="middle" font-weight="bold">T</text><path d="M110,435 L130,160 L210,125 L480,125 L515,175" fill="none" stroke="#1f9d55" stroke-width="5" opacity="0.95" marker-end="url(#arrsafe)" stroke-linecap="round" stroke-linejoin="round"/><text x="330" y="85" font-family="Helvetica,Arial,sans-serif" font-size="14" fill="#1f9d55" text-anchor="middle" font-weight="bold">rim walk, then a ramp drop into the bowl</text><path d="M120,442 L300,442 L445,440 L470,380 L500,330" fill="none" stroke="#f08a00" stroke-width="5" opacity="0.95" stroke-dasharray="10 7" marker-end="url(#arrbold)" stroke-linecap="round" stroke-linejoin="round"/><text x="420" y="485" font-family="Helvetica,Arial,sans-serif" font-size="14" fill="#f08a00" text-anchor="middle" font-weight="bold">dive through the lava tunnel</text><text x="600" y="515" font-family="Helvetica,Arial,sans-serif" font-size="13" fill="#ffd9a0" text-anchor="middle" font-weight="normal" font-style="italic">ball laps the bowl wall and spirals in to the cup</text><text x="24" y="34" font-family="Helvetica,Arial,sans-serif" font-size="24" font-weight="bold" fill="#2b2b2b">Hole 8 · Caldera Run (par 4)</text><text x="24" y="56" font-family="Helvetica,Arial,sans-serif" font-size="14" fill="#555">Volcanic Island · an upper rim walk, a lava-tunnel dive, and the Roulette Bowl</text><g font-family="Helvetica,Arial,sans-serif" font-size="13"><line x1="560" y1="538" x2="600" y2="538" stroke="#1f9d55" stroke-width="5"/><text x="606" y="543" fill="#2b2b2b">safe line</text><line x1="672" y1="538" x2="712" y2="538" stroke="#f08a00" stroke-width="5" stroke-dasharray="10 7"/><text x="718" y="543" fill="#2b2b2b">bold line</text><line x1="786" y1="538" x2="826" y2="538" stroke="#c2189b" stroke-width="5" stroke-dasharray="3 7"/><text x="832" y="543" fill="#2b2b2b">wild shot</text></g><text x="24" y="543" font-family="Helvetica,Arial,sans-serif" font-size="11" fill="#888">Schematic concept plan, not to scale. Design illustration only.</text></svg>